<svg width="473" height="447" viewBox="0 0 473 447" fill="none" xmlns="http://www.w3.org/2000/svg">
<path d="M431.428 0H41.5723C18.6493 0 0 18.6493 0 41.5723V323.34C0 346.263 18.6493 364.912 41.5723 364.912H181.253L169.069 418.878H110.614V446.593H362.386V418.878H303.931L291.747 364.912H431.428C454.351 364.912 473 346.263 473 323.34V41.5723C473 18.6493 454.351 0 431.428 0V0ZM41.5723 27.7148H431.428C439.069 27.7148 445.285 33.9313 445.285 41.5723V263.291H27.7148V41.5723C27.7148 33.9313 33.9313 27.7148 41.5723 27.7148V27.7148ZM263.334 364.912L275.519 418.878H197.482L209.666 364.912H263.334ZM431.428 337.197H41.5723C33.9313 337.197 27.7148 330.981 27.7148 323.34V291.006H445.285V323.34C445.285 330.981 439.069 337.197 431.428 337.197Z" fill="#FFD796"/>
<path d="M133.825 182.353L227.118 89.0597L246.712 108.654L153.419 201.947L133.825 182.353Z" fill="#FFD796"/>
<path d="M226.202 182.364L319.494 89.0714L339.089 108.666L245.796 201.959L226.202 182.364Z" fill="#FFD796"/>
</svg>